<?xml version="1.0" encoding="UTF-8"?>
<svg xmlns="http://www.w3.org/2000/svg" xmlns:xlink="http://www.w3.org/1999/xlink" width="24px" height="24px" viewBox="0 0 24 24" version="1.1">
<g id="surface1">
<path style=" stroke:none;fill-rule:nonzero;fill:rgb(0%,0%,0%);fill-opacity:1;" d="M 0 11.992188 L 0 23.984375 L 24 23.984375 L 24 0 L 0 0 Z M 12.738281 1.734375 C 13.566406 2.8125 14 4.5 13.945312 6.4375 C 13.921875 7.226562 13.917969 7.234375 14.195312 6.230469 C 14.289062 5.878906 14.375 5.570312 14.382812 5.542969 C 14.394531 5.515625 14.570312 5.695312 14.800781 5.96875 C 15.023438 6.230469 15.355469 6.582031 15.542969 6.753906 C 15.855469 7.046875 16.558594 7.621094 16.835938 7.808594 C 16.957031 7.890625 16.964844 7.90625 17.003906 8.226562 C 17.121094 9.222656 17.300781 10.148438 17.484375 10.695312 C 17.566406 10.949219 17.625 11.054688 17.78125 11.230469 C 17.886719 11.351562 18.199219 11.738281 18.472656 12.09375 C 19.085938 12.878906 19.378906 13.214844 19.71875 13.523438 L 19.976562 13.761719 L 20 14.289062 C 20.011719 14.582031 20.035156 14.96875 20.058594 15.152344 C 20.078125 15.332031 20.085938 15.5 20.074219 15.519531 C 20.039062 15.585938 19.5 15.808594 19.132812 15.910156 C 18.652344 16.039062 17.855469 16.078125 17.371094 15.992188 C 17.054688 15.933594 17 15.933594 16.601562 16.007812 C 16.097656 16.09375 15.515625 16.246094 15.035156 16.40625 L 14.691406 16.523438 L 14.464844 16.382812 C 13.230469 15.625 11.476562 15.742188 9.914062 16.683594 C 9.722656 16.796875 9.574219 16.867188 9.554688 16.847656 C 9.511719 16.796875 9.609375 16.464844 9.824219 15.941406 C 10.007812 15.484375 10.289062 14.972656 10.554688 14.609375 L 10.703125 14.398438 L 10.503906 14.398438 C 9.890625 14.398438 8.816406 14.71875 7.734375 15.21875 C 7.222656 15.457031 7.195312 15.4375 7.386719 15.015625 C 7.734375 14.257812 8.351562 13.441406 8.945312 12.953125 C 9.230469 12.71875 9.253906 12.691406 9.199219 12.640625 C 9.164062 12.613281 9.007812 12.480469 8.847656 12.34375 C 8.480469 12.039062 7.894531 11.359375 7.617188 10.917969 C 7.371094 10.523438 7.015625 9.804688 7.042969 9.753906 C 7.050781 9.734375 7.277344 9.808594 7.53125 9.925781 C 8.046875 10.160156 8.582031 10.359375 8.566406 10.316406 C 8.558594 10.300781 8.464844 10.105469 8.359375 9.886719 C 8.007812 9.171875 7.773438 8.359375 7.664062 7.519531 C 7.605469 7.066406 7.59375 6.234375 7.644531 6.195312 C 7.664062 6.183594 8.003906 6.351562 8.402344 6.578125 C 8.804688 6.796875 9.144531 6.980469 9.160156 6.980469 C 9.175781 6.980469 9.1875 6.90625 9.1875 6.820312 C 9.1875 6.585938 9.28125 6.066406 9.390625 5.691406 C 9.835938 4.152344 10.925781 2.65625 12.332031 1.664062 C 12.441406 1.589844 12.542969 1.523438 12.554688 1.523438 C 12.566406 1.523438 12.648438 1.617188 12.738281 1.734375 Z M 16.878906 2.90625 C 16.863281 4.089844 16.667969 5.109375 16.285156 6.078125 C 16.21875 6.253906 16.128906 6.4375 16.09375 6.488281 L 16.027344 6.582031 L 15.789062 6.386719 C 15.65625 6.273438 15.433594 6.046875 15.292969 5.882812 L 15.042969 5.582031 L 15.101562 5.351562 C 15.21875 4.871094 15.460938 4.40625 15.886719 3.839844 C 16.03125 3.644531 16.140625 3.488281 16.132812 3.488281 C 16.085938 3.488281 15.804688 3.671875 15.53125 3.878906 C 15.351562 4.019531 15.101562 4.261719 14.875 4.535156 C 14.671875 4.773438 14.5 4.957031 14.488281 4.941406 C 14.453125 4.871094 14.261719 4.117188 14.242188 3.984375 L 14.222656 3.828125 L 14.578125 3.546875 C 15.210938 3.035156 15.664062 2.765625 16.371094 2.480469 C 16.917969 2.257812 16.886719 2.234375 16.878906 2.90625 Z M 7.105469 7.667969 C 7.136719 7.925781 7.199219 8.328125 7.246094 8.5625 C 7.289062 8.796875 7.316406 8.996094 7.304688 9.003906 C 7.289062 9.011719 7.164062 9.046875 7.023438 9.085938 C 6.476562 9.214844 5.910156 9.503906 5.507812 9.863281 C 5.386719 9.96875 5.277344 10.050781 5.265625 10.035156 C 5.199219 9.960938 5.269531 8.652344 5.351562 8.355469 C 5.402344 8.164062 5.761719 7.808594 6.117188 7.597656 C 6.414062 7.410156 6.945312 7.175781 7.011719 7.195312 C 7.027344 7.199219 7.070312 7.414062 7.105469 7.667969 Z M 7.324219 11.882812 C 7.589844 12.117188 7.824219 12.335938 7.847656 12.367188 C 7.882812 12.417969 7.847656 12.480469 7.660156 12.722656 C 7.3125 13.171875 6.921875 13.796875 6.613281 14.40625 L 6.332031 14.957031 L 6.238281 14.875 C 5.988281 14.671875 5.242188 14.296875 4.507812 14.015625 C 4.078125 13.851562 3.710938 13.699219 3.695312 13.683594 C 3.652344 13.632812 4.15625 12.914062 4.5625 12.453125 C 5.003906 11.957031 5.355469 11.621094 5.929688 11.167969 L 6.316406 10.863281 L 6.578125 11.15625 C 6.722656 11.320312 7.054688 11.648438 7.324219 11.882812 Z M 8.96875 15.792969 C 8.804688 16.40625 8.761719 16.769531 8.761719 17.566406 C 8.761719 18.386719 8.820312 18.816406 9.015625 19.492188 C 9.070312 19.679688 9.105469 19.84375 9.089844 19.863281 C 9.058594 19.902344 7.96875 19.484375 7.554688 19.28125 C 6.953125 18.984375 6.527344 18.613281 6.21875 18.125 L 6.097656 17.929688 L 6.335938 17.613281 C 6.863281 16.9375 7.316406 16.472656 7.832031 16.074219 C 8.292969 15.71875 8.957031 15.363281 9.027344 15.441406 C 9.042969 15.457031 9.015625 15.617188 8.96875 15.792969 Z M 13.042969 16.640625 C 13.050781 16.660156 13.019531 16.746094 12.96875 16.828125 C 12.34375 17.835938 11.882812 19.003906 11.839844 19.691406 C 11.828125 19.867188 11.808594 20.027344 11.792969 20.035156 C 11.757812 20.0625 11.238281 19.308594 10.953125 18.808594 C 10.679688 18.328125 10.5 17.867188 10.46875 17.566406 L 10.445312 17.375 L 10.613281 17.230469 C 11.015625 16.886719 11.910156 16.632812 12.796875 16.609375 C 12.921875 16.609375 13.03125 16.621094 13.042969 16.640625 Z M 13.042969 16.640625 "/>
<path style=" stroke:none;fill-rule:nonzero;fill:rgb(0%,0%,0%);fill-opacity:1;" d="M 12.035156 3.378906 C 11.339844 4.316406 10.859375 5.445312 10.726562 6.433594 C 10.671875 6.847656 10.703125 7.417969 10.804688 7.78125 L 10.886719 8.082031 L 10.914062 7.742188 C 10.976562 6.917969 11.101562 6.300781 11.230469 6.132812 C 11.285156 6.0625 11.292969 6.066406 11.429688 6.1875 C 11.589844 6.328125 11.921875 6.519531 11.949219 6.488281 C 11.957031 6.476562 11.933594 6.386719 11.898438 6.28125 C 11.738281 5.847656 11.6875 5.398438 11.761719 5.089844 C 11.820312 4.832031 11.84375 4.828125 12.332031 5.007812 C 12.574219 5.101562 12.871094 5.226562 12.988281 5.292969 C 13.109375 5.359375 13.210938 5.414062 13.21875 5.414062 C 13.269531 5.414062 12.949219 4.386719 12.769531 3.960938 C 12.648438 3.683594 12.347656 3.097656 12.308594 3.066406 C 12.292969 3.054688 12.167969 3.195312 12.035156 3.378906 Z M 12.035156 3.378906 "/>
<path style=" stroke:none;fill-rule:nonzero;fill:rgb(0%,0%,0%);fill-opacity:1;" d="M 13.941406 10.476562 C 14.140625 10.832031 14.324219 11.15625 14.351562 11.191406 C 14.394531 11.242188 15.667969 11.675781 15.695312 11.648438 C 15.703125 11.644531 15.566406 11.4375 15.390625 11.195312 L 15.070312 10.753906 L 14.351562 10.300781 C 13.957031 10.050781 13.621094 9.839844 13.605469 9.835938 C 13.585938 9.828125 13.738281 10.113281 13.941406 10.476562 Z M 13.941406 10.476562 "/>
</g>
</svg>
