<?xml version="1.0" encoding="UTF-8"?>
<svg xmlns="http://www.w3.org/2000/svg" xmlns:xlink="http://www.w3.org/1999/xlink" width="700px" height="700px" viewBox="0 0 700 700" version="1.1">
<g id="surface1">
<path style=" stroke:none;fill-rule:nonzero;fill:rgb(0%,0%,0%);fill-opacity:1;" d="M 0 349.765625 L 0 699.53125 L 700 699.53125 L 700 0 L 0 0 Z M 371.5 50.535156 C 395.699219 82.003906 408.300781 131.25 406.699219 187.75 C 406 210.796875 405.898438 211.03125 414 181.667969 C 416.800781 171.492188 419.300781 162.484375 419.5 161.664062 C 419.800781 160.84375 425 166.109375 431.699219 174.0625 C 438.199219 181.667969 447.898438 191.960938 453.300781 196.992188 C 462.5 205.53125 483 222.257812 491.101562 227.757812 C 494.601562 230.097656 494.800781 230.566406 495.898438 239.921875 C 499.398438 269.050781 504.601562 295.957031 510 311.980469 C 512.398438 319.351562 514.101562 322.394531 518.601562 327.539062 C 521.699219 331.050781 530.800781 342.394531 538.800781 352.691406 C 556.699219 375.617188 565.199219 385.445312 575.101562 394.453125 L 582.699219 401.355469 L 583.300781 416.792969 C 583.699219 425.335938 584.398438 436.5625 585 441.945312 C 585.601562 447.210938 585.800781 452.121094 585.5 452.707031 C 584.5 454.578125 568.699219 461.128906 558 464.054688 C 544 467.796875 520.800781 468.96875 506.601562 466.394531 C 497.398438 464.757812 495.800781 464.757812 484.199219 466.863281 C 469.5 469.433594 452.5 473.878906 438.5 478.558594 L 428.5 481.953125 L 421.898438 477.859375 C 385.898438 455.75 334.699219 459.140625 289.199219 486.632812 C 283.601562 489.90625 279.199219 492.011719 278.699219 491.425781 C 277.398438 489.90625 280.300781 480.195312 286.5 464.988281 C 291.898438 451.65625 300.101562 436.679688 307.800781 426.152344 L 312.199219 419.953125 L 306.398438 419.953125 C 288.5 419.953125 257.199219 429.3125 225.601562 443.933594 C 210.699219 450.835938 209.898438 450.25 215.5 437.96875 C 225.601562 415.859375 243.601562 391.996094 260.898438 377.839844 C 269.199219 370.9375 269.898438 370.121094 268.300781 368.714844 C 267.300781 367.898438 262.699219 364.039062 258 360.058594 C 247.398438 351.167969 230.300781 331.285156 222.199219 318.414062 C 215 306.953125 204.601562 286.011719 205.398438 284.492188 C 205.699219 283.90625 212.199219 286.128906 219.699219 289.523438 C 234.699219 296.308594 250.300781 302.15625 249.800781 300.867188 C 249.601562 300.402344 246.898438 294.785156 243.800781 288.351562 C 233.601562 267.53125 226.699219 243.785156 223.5 219.335938 C 221.800781 206.117188 221.5 181.785156 223 180.730469 C 223.5 180.382812 233.5 185.292969 245.101562 191.84375 C 256.800781 198.277344 266.699219 203.542969 267.199219 203.542969 C 267.601562 203.542969 268 201.4375 268 198.980469 C 268 192.078125 270.699219 176.988281 273.898438 165.992188 C 286.898438 121.074219 318.699219 77.441406 359.699219 48.546875 C 362.898438 46.324219 365.800781 44.453125 366.199219 44.453125 C 366.5 44.453125 368.898438 47.140625 371.5 50.535156 Z M 492.300781 84.808594 C 491.800781 119.316406 486.199219 149.03125 475 177.222656 C 473 182.371094 470.398438 187.75 469.398438 189.269531 L 467.5 191.960938 L 460.5 186.230469 C 456.601562 182.953125 450.199219 176.402344 446.101562 171.609375 L 438.800781 162.835938 L 440.5 156.050781 C 443.898438 142.128906 451 128.558594 463.398438 111.949219 C 467.601562 106.332031 470.800781 101.769531 470.5 101.769531 C 469.199219 101.769531 461 107.152344 453 113.117188 C 447.699219 117.210938 440.5 124.347656 433.800781 132.304688 C 427.898438 139.203125 422.898438 144.585938 422.601562 144.117188 C 421.601562 142.128906 416 120.136719 415.398438 116.160156 L 414.800781 111.597656 L 425.199219 103.410156 C 443.699219 88.554688 456.898438 80.714844 477.5 72.292969 C 493.398438 65.859375 492.5 65.15625 492.300781 84.808594 Z M 207.199219 223.664062 C 208.101562 231.148438 210 242.847656 211.300781 249.75 C 212.601562 256.535156 213.398438 262.382812 213 262.617188 C 212.601562 262.851562 208.898438 263.902344 204.800781 264.957031 C 188.898438 268.816406 172.398438 277.238281 160.699219 287.652344 C 157.101562 290.808594 153.898438 293.148438 153.601562 292.679688 C 151.699219 290.574219 153.699219 252.324219 156.101562 243.667969 C 157.601562 238.167969 168 227.757812 178.398438 221.558594 C 187.101562 216.175781 202.601562 209.273438 204.5 209.859375 C 205 209.976562 206.199219 216.292969 207.199219 223.664062 Z M 213.601562 346.609375 C 221.398438 353.390625 228.199219 359.828125 228.898438 360.761719 C 229.898438 362.164062 228.898438 364.039062 223.398438 371.054688 C 213.300781 384.15625 201.898438 402.40625 192.898438 420.1875 L 184.699219 436.214844 L 181.898438 433.875 C 174.699219 427.90625 152.898438 417.027344 131.5 408.839844 C 118.898438 404.042969 108.199219 399.597656 107.800781 399.132812 C 106.5 397.609375 121.199219 376.671875 133.101562 363.21875 C 145.898438 348.714844 156.199219 339.003906 172.898438 325.785156 L 184.199219 316.894531 L 191.898438 325.433594 C 196.101562 330.230469 205.800781 339.707031 213.601562 346.609375 Z M 261.601562 460.660156 C 256.800781 478.558594 255.601562 489.085938 255.601562 512.367188 C 255.601562 536.230469 257.300781 548.863281 263 568.515625 C 264.601562 574.015625 265.601562 578.808594 265.101562 579.394531 C 264.199219 580.449219 232.398438 568.28125 220.300781 562.316406 C 202.800781 553.660156 190.398438 542.898438 181.398438 528.625 L 177.800781 522.894531 L 184.800781 513.769531 C 200.199219 494 213.398438 480.429688 228.398438 468.851562 C 241.898438 458.4375 261.300781 448.144531 263.300781 450.367188 C 263.800781 450.835938 263 455.515625 261.601562 460.660156 Z M 380.398438 485.34375 C 380.699219 485.929688 379.699219 488.386719 378.199219 490.84375 C 360 520.203125 346.601562 554.246094 345.300781 574.363281 C 345 579.511719 344.398438 584.074219 344 584.308594 C 342.898438 585.128906 327.800781 563.136719 319.5 548.628906 C 311.5 534.59375 306.199219 521.140625 305.300781 512.367188 L 304.699219 506.75 L 309.601562 502.539062 C 321.300781 492.480469 347.398438 485.109375 373.199219 484.410156 C 376.898438 484.410156 380.101562 484.757812 380.398438 485.34375 Z M 380.398438 485.34375 "/>
<path style=" stroke:none;fill-rule:nonzero;fill:rgb(0%,0%,0%);fill-opacity:1;" d="M 351 98.496094 C 330.800781 125.867188 316.699219 158.855469 312.898438 187.632812 C 311.300781 199.683594 312.199219 216.410156 315.101562 226.9375 L 317.5 235.710938 L 318.300781 225.769531 C 320.199219 201.789062 323.800781 183.773438 327.601562 178.859375 C 329.101562 176.871094 329.398438 176.988281 333.398438 180.496094 C 338 184.59375 347.699219 190.207031 348.5 189.269531 C 348.800781 188.921875 348.101562 186.230469 347 183.1875 C 342.398438 170.554688 340.898438 157.453125 343 148.445312 C 344.800781 140.960938 345.398438 140.84375 359.699219 146.105469 C 366.699219 148.796875 375.398438 152.421875 378.800781 154.410156 C 382.300781 156.285156 385.300781 157.921875 385.5 157.921875 C 387 157.921875 377.699219 127.972656 372.398438 115.574219 C 368.898438 107.386719 360.101562 90.308594 359 89.488281 C 358.601562 89.136719 354.898438 93.230469 351 98.496094 Z M 351 98.496094 "/>
<path style=" stroke:none;fill-rule:nonzero;fill:rgb(0%,0%,0%);fill-opacity:1;" d="M 406.601562 305.546875 C 412.398438 315.960938 417.800781 325.433594 418.601562 326.371094 C 419.800781 327.890625 457 340.523438 457.800781 339.707031 C 458 339.589844 454 333.621094 448.898438 326.488281 L 439.601562 313.621094 L 418.601562 300.402344 C 407.101562 293.148438 397.300781 286.949219 396.800781 286.832031 C 396.300781 286.597656 400.699219 295.019531 406.601562 305.546875 Z M 406.601562 305.546875 "/>
</g>
</svg>
